<svg xmlns="http://www.w3.org/2000/svg"
  width="3.5in" height="2in" viewBox="0 0 3500 2000">

  <defs>
    <style>
      @import url('https://fonts.googleapis.com/css2?family=Cormorant+Garamond:ital,wght@0,300;0,400;1,300&amp;family=Outfit:wght@300;400&amp;display=swap');
    </style>
  </defs>

  <!-- Background -->
  <rect width="3500" height="2000" fill="#F7F4EF"/>

  <!-- Wordmark — embedded paths from wordmark.svg, scaled 8x, positioned top-left -->
  <g transform="translate(280, 260) scale(8)" fill="none">
    <path d="M47.1143 6.09091H48.8409V18.6108C48.8409 19.8973 48.5393 21.0483 47.9361 22.0639C47.3329 23.0734 46.4927 23.8705 45.4155 24.4553C44.3445 25.0339 43.098 25.3232 41.6761 25.3232C40.2604 25.3232 39.014 25.0308 37.9368 24.446C36.8596 23.8613 36.0194 23.0642 35.4162 22.0547C34.813 21.0452 34.5114 19.8973 34.5114 18.6108V6.09091H36.2379V18.4908C36.2379 19.4941 36.4626 20.3897 36.9119 21.1776C37.3613 21.9593 37.9922 22.5748 38.8047 23.0241C39.6233 23.4735 40.5805 23.6982 41.6761 23.6982C42.7718 23.6982 43.7289 23.4735 44.5476 23.0241C45.3662 22.5748 45.9972 21.9593 46.4403 21.1776C46.8897 20.3897 47.1143 19.4941 47.1143 18.4908V6.09091ZM53.5174 25V10.8182H55.1147V12.9972H55.2347C55.5179 12.2831 56.0103 11.7076 56.712 11.2706C57.4199 10.8274 58.2201 10.6058 59.1126 10.6058C59.248 10.6058 59.3988 10.6089 59.565 10.6151C59.7312 10.6212 59.8697 10.6274 59.9805 10.6335V12.3047C59.9066 12.2924 59.7773 12.2739 59.5927 12.2493C59.408 12.2247 59.208 12.2124 58.9925 12.2124C58.2539 12.2124 57.5953 12.3693 57.0167 12.6832C56.4442 12.991 55.9918 13.4188 55.6594 13.9666C55.3271 14.5144 55.1609 15.1392 55.1609 15.8409V25H53.5174ZM63.1266 25V6.09091H64.7793V13.5234H64.927C65.1117 13.0987 65.3764 12.6617 65.7211 12.2124C66.0719 11.763 66.5305 11.3875 67.0968 11.0859C67.6692 10.7782 68.3894 10.6243 69.2573 10.6243C70.4206 10.6243 71.4424 10.9321 72.3226 11.5476C73.2028 12.157 73.8891 13.0125 74.3816 14.1143C74.874 15.21 75.1202 16.4872 75.1202 17.946C75.1202 19.411 74.874 20.6944 74.3816 21.7962C73.8953 22.898 73.2121 23.7566 72.3319 24.3722C71.4578 24.9877 70.4422 25.2955 69.285 25.2955C68.4232 25.2955 67.7031 25.1416 67.1245 24.8338C66.552 24.526 66.0904 24.1475 65.7395 23.6982C65.3887 23.2427 65.1178 22.7995 64.927 22.3686H64.7239V25H63.1266ZM64.7516 17.9183C64.7516 19.0632 64.9209 20.0788 65.2594 20.9652C65.6041 21.8454 66.0965 22.5379 66.7367 23.0426C67.383 23.5412 68.1647 23.7905 69.0819 23.7905C70.0236 23.7905 70.8207 23.532 71.4732 23.0149C72.1257 22.4917 72.6212 21.7869 72.9597 20.9006C73.2982 20.0142 73.4675 19.0201 73.4675 17.9183C73.4675 16.8288 73.2982 15.8471 72.9597 14.973C72.6273 14.099 72.1349 13.4065 71.4824 12.8956C70.83 12.3786 70.0298 12.12 69.0819 12.12C68.1586 12.12 67.3738 12.3693 66.7275 12.8679C66.0873 13.3603 65.598 14.0436 65.2594 14.9176C64.9209 15.7855 64.7516 16.7857 64.7516 17.9183ZM82.6912 25.3232C81.8356 25.3232 81.0539 25.157 80.3461 24.8246C79.6382 24.486 79.075 23.9998 78.6564 23.3658C78.2379 22.7256 78.0286 21.95 78.0286 21.0391C78.0286 20.3374 78.1609 19.7464 78.4256 19.2663C78.6903 18.7862 79.0658 18.3923 79.552 18.0845C80.0383 17.7768 80.6138 17.5336 81.2786 17.3551C81.9434 17.1766 82.6758 17.0381 83.476 16.9396C84.2701 16.8411 84.941 16.755 85.4888 16.6811C86.0428 16.6072 86.4644 16.4903 86.7537 16.3303C87.043 16.1702 87.1877 15.9117 87.1877 15.5547V15.2223C87.1877 14.2559 86.8984 13.4957 86.3198 12.9418C85.7473 12.3816 84.9225 12.1016 83.8453 12.1016C82.8236 12.1016 81.9895 12.3262 81.3432 12.7756C80.7031 13.2249 80.2537 13.7543 79.9952 14.3636L78.4348 13.8004C78.7549 13.0249 79.1981 12.4062 79.7644 11.9446C80.3307 11.4768 80.9647 11.1413 81.6664 10.9382C82.3681 10.7289 83.079 10.6243 83.7992 10.6243C84.3408 10.6243 84.9041 10.6951 85.4888 10.8366C86.0797 10.9782 86.6275 11.2244 87.1323 11.5753C87.637 11.92 88.0463 12.4032 88.3603 13.0249C88.6742 13.6404 88.8311 14.4221 88.8311 15.37V25H87.1877V22.7564H87.0861C86.8891 23.175 86.5968 23.5812 86.209 23.9751C85.8212 24.3691 85.3349 24.6922 84.7502 24.9446C84.1654 25.197 83.4791 25.3232 82.6912 25.3232ZM82.9128 23.8182C83.7869 23.8182 84.544 23.6243 85.1841 23.2365C85.8243 22.8487 86.3167 22.3348 86.6614 21.6946C87.0123 21.0483 87.1877 20.3374 87.1877 19.5618V17.5121C87.0646 17.629 86.8584 17.7337 86.5691 17.826C86.2859 17.9183 85.9566 18.0014 85.5811 18.0753C85.2118 18.143 84.8425 18.2015 84.4732 18.2507C84.1039 18.3 83.7715 18.343 83.476 18.38C82.6758 18.4785 81.9926 18.6323 81.4263 18.8416C80.86 19.0509 80.4261 19.3402 80.1245 19.7095C79.8229 20.0727 79.6721 20.5405 79.6721 21.1129C79.6721 21.9747 79.9798 22.6425 80.5953 23.1165C81.2109 23.5843 81.9834 23.8182 82.9128 23.8182ZM94.8464 16.1364V25H93.2029V10.8182H94.8002V13.0433H94.948C95.2804 12.317 95.7974 11.7353 96.4991 11.2983C97.207 10.8551 98.081 10.6335 99.1213 10.6335C100.075 10.6335 100.912 10.8336 101.633 11.2337C102.359 11.6276 102.922 12.2093 103.322 12.9787C103.729 13.7481 103.932 14.6929 103.932 15.8132V25H102.288V15.9148C102.288 14.7514 101.962 13.8312 101.309 13.1541C100.663 12.477 99.7953 12.1385 98.7058 12.1385C97.961 12.1385 97.2993 12.2985 96.7207 12.6186C96.1421 12.9387 95.6835 13.4003 95.345 14.0036C95.0126 14.6006 94.8464 15.3116 94.8464 16.1364ZM115.941 25H114.132L121.01 6.09091H122.857L129.735 25H127.926L121.998 8.33452H121.869L115.941 25ZM117.243 17.7521H126.624V19.3033H117.243V17.7521ZM138.045 30.6136C137.079 30.6136 136.232 30.4875 135.506 30.2351C134.78 29.9889 134.167 29.6503 133.669 29.2195C133.17 28.7886 132.782 28.3054 132.505 27.7699L133.853 26.8835C134.056 27.2405 134.327 27.5914 134.666 27.9361C135.011 28.2808 135.457 28.567 136.005 28.7947C136.559 29.0225 137.239 29.1364 138.045 29.1364C139.301 29.1364 140.313 28.8224 141.083 28.1946C141.858 27.5668 142.246 26.5911 142.246 25.2678V22.0732H142.098C141.908 22.504 141.634 22.9349 141.277 23.3658C140.92 23.7905 140.452 24.1444 139.873 24.4276C139.301 24.7107 138.59 24.8523 137.74 24.8523C136.608 24.8523 135.601 24.5722 134.721 24.0121C133.847 23.4519 133.158 22.6518 132.653 21.6115C132.154 20.5651 131.905 19.3187 131.905 17.8722C131.905 16.438 132.148 15.1761 132.635 14.0866C133.127 12.9972 133.813 12.1477 134.694 11.5384C135.574 10.929 136.599 10.6243 137.768 10.6243C138.636 10.6243 139.356 10.7782 139.929 11.0859C140.501 11.3875 140.96 11.763 141.304 12.2124C141.655 12.6617 141.929 13.0987 142.126 13.5234H142.292V10.8182H143.899V25.3693C143.899 26.5696 143.643 27.5575 143.132 28.3331C142.622 29.1087 141.926 29.6811 141.046 30.0504C140.166 30.4259 139.165 30.6136 138.045 30.6136ZM137.934 23.3473C138.845 23.3473 139.624 23.1288 140.27 22.6918C140.917 22.2486 141.412 21.6146 141.757 20.7898C142.101 19.965 142.274 18.9832 142.274 17.8445C142.274 16.7365 142.105 15.7547 141.766 14.8991C141.427 14.0374 140.935 13.3603 140.289 12.8679C139.649 12.3693 138.864 12.12 137.934 12.12C136.986 12.12 136.186 12.3755 135.534 12.8864C134.881 13.3973 134.389 14.0866 134.056 14.9545C133.724 15.8163 133.558 16.7796 133.558 17.8445C133.558 18.9278 133.727 19.8849 134.066 20.7159C134.404 21.5407 134.9 22.187 135.552 22.6548C136.205 23.1165 136.999 23.3473 137.934 23.3473ZM148.268 25V10.8182H149.921V25H148.268ZM149.108 8.38068C148.77 8.38068 148.481 8.26681 148.241 8.03906C148.001 7.80516 147.881 7.52509 147.881 7.19886C147.881 6.87263 148.001 6.59564 148.241 6.3679C148.481 6.134 148.77 6.01704 149.108 6.01704C149.447 6.01704 149.736 6.134 149.976 6.3679C150.216 6.59564 150.336 6.87263 150.336 7.19886C150.336 7.52509 150.216 7.80516 149.976 8.03906C149.736 8.26681 149.447 8.38068 149.108 8.38068ZM155.911 16.1364V25H154.267V10.8182H155.865V13.0433H156.012C156.345 12.317 156.862 11.7353 157.564 11.2983C158.271 10.8551 159.145 10.6335 160.186 10.6335C161.14 10.6335 161.977 10.8336 162.697 11.2337C163.423 11.6276 163.987 12.2093 164.387 12.9787C164.793 13.7481 164.996 14.6929 164.996 15.8132V25H163.353V15.9148C163.353 14.7514 163.026 13.8312 162.374 13.1541C161.728 12.477 160.86 12.1385 159.77 12.1385C159.025 12.1385 158.364 12.2985 157.785 12.6186C157.207 12.9387 156.748 13.4003 156.409 14.0036C156.077 14.6006 155.911 15.3116 155.911 16.1364ZM174.735 30.6136C173.768 30.6136 172.922 30.4875 172.195 30.2351C171.469 29.9889 170.857 29.6503 170.358 29.2195C169.86 28.7886 169.472 28.3054 169.195 27.7699L170.543 26.8835C170.746 27.2405 171.017 27.5914 171.355 27.9361C171.7 28.2808 172.146 28.567 172.694 28.7947C173.248 29.0225 173.928 29.1364 174.735 29.1364C175.99 29.1364 177.003 28.8224 177.772 28.1946C178.548 27.5668 178.936 26.5911 178.936 25.2678V22.0732H178.788C178.597 22.504 178.323 22.9349 177.966 23.3658C177.609 23.7905 177.141 24.1444 176.563 24.4276C175.99 24.7107 175.279 24.8523 174.43 24.8523C173.297 24.8523 172.291 24.5722 171.411 24.0121C170.537 23.4519 169.847 22.6518 169.343 21.6115C168.844 20.5651 168.595 19.3187 168.595 17.8722C168.595 16.438 168.838 15.1761 169.324 14.0866C169.816 12.9972 170.503 12.1477 171.383 11.5384C172.263 10.929 173.288 10.6243 174.458 10.6243C175.325 10.6243 176.046 10.7782 176.618 11.0859C177.191 11.3875 177.649 11.763 177.994 12.2124C178.345 12.6617 178.619 13.0987 178.816 13.5234H178.982V10.8182H180.588V25.3693C180.588 26.5696 180.333 27.5575 179.822 28.3331C179.311 29.1087 178.615 29.6811 177.735 30.0504C176.855 30.4259 175.855 30.6136 174.735 30.6136ZM174.624 23.3473C175.535 23.3473 176.313 23.1288 176.96 22.6918C177.606 22.2486 178.102 21.6146 178.446 20.7898C178.791 19.965 178.963 18.9832 178.963 17.8445C178.963 16.7365 178.794 15.7547 178.455 14.8991C178.117 14.0374 177.624 13.3603 176.978 12.8679C176.338 12.3693 175.553 12.12 174.624 12.12C173.676 12.12 172.876 12.3755 172.223 12.8864C171.571 13.3973 171.078 14.0866 170.746 14.9545C170.414 15.8163 170.247 16.7796 170.247 17.8445C170.247 18.9278 170.417 19.8849 170.755 20.7159C171.094 21.5407 171.589 22.187 172.242 22.6548C172.894 23.1165 173.688 23.3473 174.624 23.3473Z" fill="#1A1916"/>
    <line x1="0.5" y1="4" x2="0.5" y2="28" stroke="#1A1916"/>
    <line x1="6.5" y1="4" x2="6.5" y2="28" stroke="#1A1916"/>
    <line x1="12.5" y1="4" x2="12.5" y2="28" stroke="#1A1916"/>
    <line x1="18.5" y1="4" x2="18.5" y2="28" stroke="#1A1916"/>
    <line x1="0" y1="16.5" x2="18" y2="16.5" stroke="#1A1916"/>
    <line x1="0" y1="27.5" x2="18" y2="27.5" stroke="#1A1916"/>
    <line x1="0" y1="4.5"  x2="18" y2="4.5"  stroke="#1A1916"/>
  </g>

  <!-- Divider -->
  <line x1="280" y1="560" x2="3220" y2="560" stroke="#9BA88C" stroke-width="1.5"/>

  <!-- Name -->
  <text
    x="280" y="810"
    font-family="'Cormorant Garamond', Georgia, serif"
    font-weight="300"
    font-size="220"
    fill="#1A1916">Claire Trefethen</text>

  <!-- Credentials -->
  <text
    x="280" y="960"
    font-family="'Outfit', Arial, sans-serif"
    font-weight="300"
    font-size="78"
    letter-spacing="5"
    fill="#9BA88C">OTD, OTR/L  ·  NBC-HWC  ·  NASM-CPT  ·  SFS</text>

  <!-- Phone -->
  <text
    x="280" y="1580"
    font-family="'Outfit', Arial, sans-serif"
    font-weight="300"
    font-size="78"
    fill="#8A857D">(719) 351-5668</text>

  <!-- Email -->
  <text
    x="280" y="1720"
    font-family="'Outfit', Arial, sans-serif"
    font-weight="300"
    font-size="78"
    fill="#8A857D">claire@urbanaging.com</text>

  <!-- Website — right aligned -->
  <text
    x="3220" y="1580"
    font-family="'Outfit', Arial, sans-serif"
    font-weight="300"
    font-size="78"
    letter-spacing="4"
    text-anchor="end"
    fill="#9BA88C">urbanaging.com</text>

  <!-- Location — right aligned -->
  <text
    x="3220" y="1720"
    font-family="'Outfit', Arial, sans-serif"
    font-weight="300"
    font-size="78"
    letter-spacing="4"
    text-anchor="end"
    fill="#B5A99A">New York, NY</text>

</svg>
